<?xml version="1.0" encoding="utf-8"?>
<!-- Generator: Adobe Illustrator 19.2.1, SVG Export Plug-In . SVG Version: 6.00 Build 0)  -->
<svg version="1.1" id="Layer_1" xmlns="http://www.w3.org/2000/svg" xmlns:xlink="http://www.w3.org/1999/xlink" x="0px" y="0px"
	 viewBox="0 0 112.2 35.5" style="enable-background:new 0 0 112.2 35.5;" xml:space="preserve">
<style type="text/css">
	.st0{fill:#FFFFFF;}
	.st1{fill:#B4B4B2;}
</style>
<polygon class="st0" points="84.7,0 112.2,27.3 112.2,30.5 81.7,0 "/>
<polygon class="st0" points="91.4,0 112.2,20.7 112.2,23.8 88.4,0 "/>
<polygon class="st0" points="98,0 112.2,14.1 112.2,17.2 95.1,0 "/>
<polygon class="st0" points="104.7,0 112.2,7.5 112.2,10.5 101.7,0 "/>
<polygon class="st1" points="97.7,0 62.3,35.5 62.2,35.5 60.6,33.9 94.7,0 "/>
<polygon class="st1" points="91.1,0 55.6,35.5 55.5,35.5 53.9,33.9 88,0 "/>
<polygon class="st1" points="84.4,0 48.9,35.5 48.9,35.5 47.2,33.9 81.4,0 "/>
<polygon class="st1" points="77.7,0 42.3,35.5 42.2,35.5 40.6,33.9 74.7,0 "/>
<polygon class="st1" points="71.1,0 35.6,35.5 35.5,35.5 33.9,33.9 68,0 "/>
<polygon class="st0" points="3,0 37.2,33.9 35.7,35.5 35.4,35.5 0,0 "/>
<polygon class="st0" points="9.7,0 43.9,33.9 42.3,35.5 42.1,35.5 6.7,0 "/>
<polygon class="st0" points="16.3,0 50.5,33.9 49,35.5 48.8,35.5 13.3,0 "/>
<polygon class="st0" points="23,0 57.2,33.9 55.6,35.5 55.4,35.5 20,0 "/>
<polygon class="st0" points="29.6,0 63.8,33.9 62.3,35.5 62.1,35.5 26.6,0 "/>
</svg>
