<svg id="Layer_1" data-name="Layer 1" xmlns="http://www.w3.org/2000/svg" viewBox="0 0 112.21 35.47"><title>new-stripes</title><polygon points="27.48 0 0 27.26 0 30.48 30.46 0 27.48 0" style="fill:#231f20"/><polygon points="20.82 0 0 20.66 0 23.82 23.8 0 20.82 0" style="fill:#231f20"/><polygon points="14.17 0 0 14.06 0 17.16 17.15 0 14.17 0" style="fill:#231f20"/><polygon points="7.51 0 0 7.46 0 10.5 10.49 0 7.51 0" style="fill:#231f20"/><polygon points="14.48 0 49.95 35.47 50.01 35.47 51.64 33.85 17.52 0 14.48 0" style="fill:#b4b4b2"/><polygon points="21.15 0 56.62 35.47 56.67 35.47 58.31 33.85 24.18 0 21.15 0" style="fill:#b4b4b2"/><polygon points="27.82 0 63.29 35.47 63.34 35.47 64.97 33.85 30.85 0 27.82 0" style="fill:#b4b4b2"/><polygon points="34.48 0 69.95 35.47 70 35.47 71.64 33.85 37.51 0 34.48 0" style="fill:#b4b4b2"/><polygon points="41.15 0 76.62 35.47 76.67 35.47 78.3 33.85 44.18 0 41.15 0" style="fill:#b4b4b2"/><polygon points="109.19 0 74.99 33.94 76.53 35.47 76.76 35.47 112.21 0 109.19 0" style="fill:#231f20"/><polygon points="102.54 0 68.33 33.94 69.88 35.47 70.11 35.47 105.55 0 102.54 0" style="fill:#231f20"/><polygon points="95.88 0 61.68 33.94 63.23 35.47 63.45 35.47 98.9 0 95.88 0" style="fill:#231f20"/><polygon points="89.23 0 55.02 33.94 56.57 35.47 56.8 35.47 92.24 0 89.23 0" style="fill:#231f20"/><polygon points="82.57 0 48.37 33.94 49.92 35.47 50.14 35.47 85.59 0 82.57 0" style="fill:#231f20"/></svg>