<?xml version="1.0" encoding="utf-8"?>
<!-- Generator: Adobe Illustrator 19.2.1, SVG Export Plug-In . SVG Version: 6.00 Build 0)  -->
<svg version="1.1" id="Layer_1" xmlns="http://www.w3.org/2000/svg" xmlns:xlink="http://www.w3.org/1999/xlink" x="0px" y="0px"
	 viewBox="0 0 112.2 35.5" style="enable-background:new 0 0 112.2 35.5;" xml:space="preserve">
<style type="text/css">
	.st0{fill:#231F20;}
	.st1{fill:#B4B4B2;}
</style>
<polygon class="st0" points="27.5,0 0,27.3 0,30.5 30.5,0 "/>
<polygon class="st0" points="20.8,0 0,20.7 0,23.8 23.8,0 "/>
<polygon class="st0" points="14.2,0 0,14.1 0,17.2 17.1,0 "/>
<polygon class="st0" points="7.5,0 0,7.5 0,10.5 10.5,0 "/>
<polygon class="st1" points="14.5,0 50,35.5 50,35.5 51.6,33.9 17.5,0 "/>
<polygon class="st1" points="21.1,0 56.6,35.5 56.7,35.5 58.3,33.9 24.2,0 "/>
<polygon class="st1" points="27.8,0 63.3,35.5 63.3,35.5 65,33.9 30.8,0 "/>
<polygon class="st1" points="34.5,0 70,35.5 70,35.5 71.6,33.9 37.5,0 "/>
<polygon class="st1" points="41.1,0 76.6,35.5 76.7,35.5 78.3,33.9 44.2,0 "/>
<polygon class="st0" points="109.2,0 75,33.9 76.5,35.5 76.8,35.5 112.2,0 "/>
<polygon class="st0" points="102.5,0 68.3,33.9 69.9,35.5 70.1,35.5 105.6,0 "/>
<polygon class="st0" points="95.9,0 61.7,33.9 63.2,35.5 63.4,35.5 98.9,0 "/>
<polygon class="st0" points="89.2,0 55,33.9 56.6,35.5 56.8,35.5 92.2,0 "/>
<polygon class="st0" points="82.6,0 48.4,33.9 49.9,35.5 50.1,35.5 85.6,0 "/>
</svg>
